PathFileType	4	(X/Y/Z)	Patient4_TMGait_0pt3_01_right_14.trc.trc
DataRate	CameraRate	NumFrames	NumMarkers	Units	OrigDataRate	OrigDataStartFrame	OrigNumFrames
53.231939163498	53.231939163498	4	33	mm	53.231939163498	71	       141
Frame#	Time	Sacral			L.Shoulder			Chest			R.Shoulder			Neck			R.ASIS			L.ASIS			R.Thigh.Superior			R.Thigh.Lateral			R.Thigh.Inferior			R.Patella			L.Thigh.Superior			L.Thigh.Lateral			L.Thigh.Inferior			L.Patella			L.Shank.Superior			L.Shank.Lateral			L.Shank.Inferior			R.Shank.Superior			R.Shank.Lateral			R.Shank.Inferior			R.Heel			R.Midfoot.Superior			R.Midfoot.Lateral			R.Toe			L.Heel			L.Midfoot.Lateral			L.Midfoot.Superior			L.Toe			L.Elbow			L.Wrist			R.Elbow			R.Wrist			
		X1	Y1	Z1	X2	Y2	Z2	X3	Y3	Z3	X4	Y4	Z4	X5	Y5	Z5	X6	Y6	Z6	X7	Y7	Z7	X8	Y8	Z8	X9	Y9	Z9	X10	Y10	Z10	X11	Y11	Z11	X12	Y12	Z12	X13	Y13	Z13	X14	Y14	Z14	X15	Y15	Z15	X16	Y16	Z16	X17	Y17	Z17	X18	Y18	Z18	X19	Y19	Z19	X20	Y20	Z20	X21	Y21	Z21	X22	Y22	Z22	X23	Y23	Z23	X24	Y24	Z24	X25	Y25	Z25	X26	Y26	Z26	X27	Y27	Z27	X28	Y28	Z28	X29	Y29	Z29	X30	Y30	Z30	X31	Y31	Z31	X32	Y32	Z32	X33	Y33	Z33	

71	26.345000000000	755.251224645643	999.883312824359	579.460537711988	899.781492660375	1417.460226724181	356.503692813324	1027.752704369193	1357.260180343756	501.868500978925	973.665036805970	1443.302455588457	680.683807761665	913.939944703000	1487.658376694615	509.018680106192	994.803827545056	933.848777854364	665.671104672809	947.448070028128	954.733084070242	394.042665268993	998.240374344546	721.063936415968	634.390676594441	903.614177479863	621.914099396139	701.049761440670	961.091651133898	560.255784194498	615.787157837299	943.849515013221	472.572811538246	622.405667856036	1024.403031004353	764.616455225884	424.326477457910	967.323063091177	639.174055465593	349.285113037467	1067.084768855212	576.631431891814	411.205443733168	1086.150114840400	507.106327891892	408.668130154437	1063.012753295319	433.762188267415	395.825487513452	984.824312109368	313.408496838976	336.789735105015	1055.998263455204	203.425226771628	394.519730546937	901.032855809869	388.517931841358	631.902306637532	813.456840560124	297.923485127117	694.001033853433	838.664508051204	198.066177065137	631.448481552145	682.478458346485	43.965234803943	597.619432432502	851.080867809056	94.530436684238	642.242716086325	759.514498650905	37.126929284636	678.351892041204	967.976006562337	41.813927011843	684.733047576872	947.184623299173	35.703362745311	419.632690265190	1027.949890588312	35.418006810526	345.763589078042	1104.669003447790	103.131270091437	376.794103216904	1236.731641024345	59.817452017654	360.503528038925	744.608440974161	1094.999031617989	290.902826336367	710.968398513648	837.649123161458	318.328683390652	1156.130569933335	1181.406603784798	816.027190031176	1338.420921868789	1319.995399723467	719.025371528343	
72	26.363785714286	756.015958892037	999.456961575393	576.208227588656	899.702441373883	1416.275447061977	351.599434887238	1028.514030744147	1356.185445264889	496.278917204006	975.575993604954	1442.672640513465	675.172920789311	914.813523818293	1486.778975086513	503.767248579773	995.925192043793	933.093711256025	661.430884228571	947.235171278902	953.397141464642	389.915483331623	997.505054233603	719.873797429749	631.323851842694	902.072750143063	621.495341407131	698.585985721776	958.889536585783	559.115359553807	613.555845322391	940.728501268865	471.673882750947	620.419965465409	1024.553000526632	763.429961836703	419.747147160344	964.985837689015	637.511007390522	346.674001048890	1065.783964988688	575.095314263236	406.912404649184	1083.403762808522	505.460513294137	405.747041354544	1060.792722491957	431.938833182897	393.505538230102	982.379189417743	311.681032633069	335.354581212981	1052.880088124922	202.122721253337	394.008055986237	897.463166855909	387.954033349267	630.339498002317	809.363901113968	298.197890564639	693.086772503558	833.815532314240	197.984527550298	630.965441271925	676.838969466923	44.245286336449	597.675479655285	845.550935008432	94.544579089597	642.136787962186	753.908098157967	37.236794784410	678.365526953570	962.329717801819	41.714243953990	684.703900240873	943.020173623120	35.928776009832	420.057439908794	1023.500351373343	35.268448120441	345.878012310580	1100.644081320883	101.957579486062	376.998825914731	1232.185673477767	57.697286079557	360.390460829995	743.795699384483	1094.147161123917	287.476511406716	711.036948477206	836.425936390593	314.848832954098	1162.196854031942	1183.368668387127	808.149828564782	1339.399595661053	1326.391785687508	708.421539981331	
73	26.382571428571	756.800626884632	999.067712941620	572.615940625789	899.824399056249	1415.130245110722	346.528808372148	1029.347738559829	1355.150875084994	490.652061259399	977.372688920582	1442.048624323672	669.591423231822	915.752260915482	1485.947539910998	498.407856427701	997.036353479038	932.404060946478	657.072998081566	947.251412727755	952.172344609766	385.631335022162	996.981020414768	718.788447119085	628.152575798038	900.806244433510	621.123750952577	695.938947040223	957.161953443221	558.050344418846	611.229122974320	938.157578231928	470.751220316093	618.350614714474	1025.218088562629	762.658332758350	415.445329498881	963.757726583679	636.176813076984	344.149936329427	1065.365252452799	573.911184677491	403.065799074978	1081.656011350779	503.996093395410	403.171324691321	1059.230305912025	430.213048051176	391.501598599110	980.090820289469	310.459667116605	334.006266634661	1049.150026032775	200.948409895632	393.700606926531	894.311065885199	387.416223358323	628.692068053631	805.546468300957	298.630829507573	692.070936004226	829.174524408933	198.002910028788	630.441044848321	671.267515920833	44.779767566624	597.714156421784	840.138400157123	94.629148362822	642.051793372784	748.366247401481	37.498018692787	678.352786526229	956.725087577460	41.530303065716	684.692193662190	937.399548048805	36.444026830521	420.664280043388	1017.497869088112	35.389683413171	346.053778967271	1095.294817396673	100.930056020040	377.230187011437	1226.259577951567	55.547604926159	359.969198446999	744.202516119222	1092.779747678015	283.526111156832	713.428506728716	834.556503749428	310.591373130647	1167.263623184253	1184.551726679094	800.188220166851	1340.221634124678	1331.141353032680	698.331446138376	
74	26.401357142857	757.576890881320	998.791031077072	568.691635947634	900.130155631850	1414.121144821426	341.361020767655	1030.241565264594	1354.230916051285	485.047236965517	979.050026579622	1441.491416638025	664.008643682974	916.735074522375	1485.236460701229	493.019252489490	998.079230078854	931.830662816173	652.629880741266	947.501090739788	951.141497134450	381.216000347270	996.558296275732	717.863057450192	624.904400914047	899.683565353891	620.882211258787	693.144465479618	955.764194280799	557.127205184725	608.845357042203	935.992735171417	469.883146120665	616.249741847549	1026.252518071422	762.255547253848	411.495530976963	963.529170963051	635.178489298107	341.671933356750	1065.596697815650	573.030431380116	399.762381957819	1080.732382229725	502.737071377369	401.006183631301	1058.228168383311	428.637117794426	389.844381337685	978.101704383335	309.635225491267	332.684642763037	1045.133891746614	199.892109726480	393.556235204083	891.465020173945	386.976673095937	627.002621980103	801.915767952630	299.268078324710	690.971697211579	824.703379948245	198.173387051914	629.888944378571	665.771752562201	45.616587550694	597.740399882151	834.849523825539	94.794508797234	641.991877183907	742.891734040327	37.946573482612	678.317756944515	951.164429752585	41.261791780538	684.697146476052	930.948484145848	37.038619453715	421.284507597526	1010.659160468974	35.634992747369	346.222823995471	1089.199585182175	100.048634778031	377.476230522836	1219.627859316572	53.541583639909	359.411260436890	745.651290992584	1091.080354285542	279.069014781419	718.063387835483	832.259929131928	305.548394244225	1171.388822950213	1185.047723285785	792.241736601006	1341.040335915179	1334.318354228626	688.767062813419	
